<?xml version="1.0" encoding="utf-8"?>
<!-- Generator: Adobe Illustrator 28.0.0, SVG Export Plug-In . SVG Version: 6.00 Build 0)  -->
<svg version="1.1" id="Layer_1" xmlns="http://www.w3.org/2000/svg" xmlns:xlink="http://www.w3.org/1999/xlink" x="0px" y="0px"
	 viewBox="0 0 113.39 170.08" style="enable-background:new 0 0 113.39 170.08;" xml:space="preserve">
<style type="text/css">
	.st0{fill:#9D332C;}
	.st1{fill:none;stroke:#9D332C;stroke-width:6;stroke-miterlimit:10;}
</style>
<g>
	<path class="st0" d="M55.31,14.77c0,0,29.42-2.14,30.01,30.86s0,32.02,0,32.02s-0.19,27.92-30.01,27.64"/>
	<path class="st0" d="M55.31,14.77c0,0-29.42-2.14-30.01,30.86c-0.59,33,0,32.02,0,32.02s0.19,27.92,30.01,27.64"/>
</g>
<g>
	<path class="st1" d="M55.31,112.76c13.56,0,32.15,0.67,38.51-24.28"/>
	<path class="st1" d="M16.8,88.48c6.36,24.95,24.95,24.28,38.51,24.28"/>
</g>
<polyline class="st1" points="55.71,113.41 55.71,134.73 74.57,134.73 36.06,134.73 "/>
</svg>
