<?xml version="1.0" encoding="utf-8"?>
<!-- Generator: Adobe Illustrator 28.0.0, SVG Export Plug-In . SVG Version: 6.00 Build 0)  -->
<svg version="1.1" id="Layer_1" xmlns="http://www.w3.org/2000/svg" xmlns:xlink="http://www.w3.org/1999/xlink" x="0px" y="0px"
	 viewBox="0 0 340.16 226.77" style="enable-background:new 0 0 340.16 226.77;" xml:space="preserve">
<style type="text/css">
	.st0{fill:#444444;}
	.st1{fill:#777777;}
</style>
<g>
	<circle class="st0" cx="157.47" cy="99.39" r="52.27"/>
</g>
<g>
	<path class="st1" d="M121.37,75.64c2.7-1.36,5.68-2.55,8.5-3.54c5.67,0.07,19.64,0.02,25.51,0.04c5.59,0,20.1,0,25.51,0
		c2.88,1.04,5.72,2.14,8.5,3.5c-2.79,1.36-5.62,2.46-8.5,3.5c-5.35,0-19.97,0-25.51,0c-5.94,0.01-19.75-0.04-25.51,0.03
		C127.05,78.19,124.07,77,121.37,75.64L121.37,75.64z"/>
</g>
<g>
	<path class="st1" d="M121.37,99.39c2.7-1.36,5.68-2.55,8.5-3.54c5.67,0.07,19.64,0.02,25.51,0.04c5.59,0,20.1,0,25.51,0
		c2.88,1.04,5.71,2.14,8.5,3.5c-2.79,1.36-5.62,2.46-8.5,3.5c-5.35,0-19.97,0-25.51,0c-5.94,0.01-19.75-0.04-25.51,0.03
		C127.05,101.94,124.07,100.75,121.37,99.39L121.37,99.39z"/>
</g>
<g>
	<path class="st1" d="M121.37,123.14c2.7-1.36,5.68-2.55,8.5-3.54c5.67,0.07,19.64,0.02,25.51,0.04c5.59,0,20.1,0,25.51,0
		c2.88,1.04,5.71,2.14,8.5,3.5c-2.79,1.36-5.62,2.46-8.5,3.5c-5.35,0-19.97,0-25.51,0c-5.94,0.01-19.75-0.04-25.51,0.03
		C127.05,125.68,124.07,124.49,121.37,123.14L121.37,123.14z"/>
</g>
</svg>
